<svg width="1439" height="566" viewBox="0 0 1439 566" fill="none" xmlns="http://www.w3.org/2000/svg">
<path d="M632.563 357L555.043 277.56V357H544.243V188.52H555.043V268.68L632.563 188.52H646.483L564.403 273L646.723 357H632.563ZM665.023 291.72C665.023 278.28 667.663 266.52 672.943 256.44C678.383 246.36 685.823 238.6 695.263 233.16C704.863 227.72 715.743 225 727.903 225C741.663 225 753.343 228.36 762.943 235.08C772.543 241.8 779.263 250.36 783.103 260.76V226.68H793.903V357H783.103V322.68C779.263 333.24 772.463 341.96 762.703 348.84C753.103 355.56 741.503 358.92 727.903 358.92C715.743 358.92 704.863 356.2 695.263 350.76C685.823 345.16 678.383 337.32 672.943 327.24C667.663 317 665.023 305.16 665.023 291.72ZM783.103 291.72C783.103 280.36 780.703 270.36 775.903 261.72C771.263 252.92 764.863 246.2 756.703 241.56C748.543 236.76 739.423 234.36 729.343 234.36C718.783 234.36 709.503 236.68 701.503 241.32C693.503 245.8 687.263 252.36 682.783 261C678.303 269.64 676.063 279.88 676.063 291.72C676.063 303.56 678.303 313.8 682.783 322.44C687.263 331.08 693.503 337.72 701.503 342.36C709.663 347 718.943 349.32 729.343 349.32C739.423 349.32 748.543 347 756.703 342.36C765.023 337.56 771.503 330.84 776.143 322.2C780.783 313.4 783.103 303.24 783.103 291.72ZM716.383 207C713.823 207 711.663 206.12 709.903 204.36C708.143 202.6 707.263 200.44 707.263 197.88C707.263 195.32 708.143 193.16 709.903 191.4C711.663 189.64 713.823 188.76 716.383 188.76C718.783 188.76 720.863 189.64 722.623 191.4C724.543 193.16 725.503 195.32 725.503 197.88C725.503 200.44 724.543 202.6 722.623 204.36C720.863 206.12 718.783 207 716.383 207ZM750.943 207C748.383 207 746.223 206.12 744.463 204.36C742.703 202.6 741.823 200.44 741.823 197.88C741.823 195.32 742.703 193.16 744.463 191.4C746.223 189.64 748.383 188.76 750.943 188.76C753.503 188.76 755.583 189.64 757.183 191.4C758.943 193.16 759.823 195.32 759.823 197.88C759.823 200.44 758.943 202.6 757.183 204.36C755.583 206.12 753.503 207 750.943 207ZM882.907 236.28H849.067V357H838.267V236.28H818.587V226.68H838.267V217.56C838.267 203.96 841.707 193.88 848.587 187.32C855.467 180.6 866.747 177.24 882.427 177.24V186.84C869.947 186.84 861.227 189.24 856.267 194.04C851.467 198.84 849.067 206.68 849.067 217.56V226.68H882.907V236.28ZM1027.93 283.08C1027.93 288.84 1027.77 293.16 1027.45 296.04H914.891C915.211 307.72 917.771 317.56 922.571 325.56C927.371 333.56 933.691 339.56 941.531 343.56C949.371 347.56 957.931 349.56 967.211 349.56C980.011 349.56 990.731 346.44 999.371 340.2C1008.01 333.8 1013.45 325.16 1015.69 314.28H1026.97C1024.41 327.56 1017.85 338.36 1007.29 346.68C996.731 354.84 983.371 358.92 967.211 358.92C955.051 358.92 944.171 356.2 934.571 350.76C924.971 345.32 917.451 337.56 912.011 327.48C906.571 317.24 903.851 305.32 903.851 291.72C903.851 278.12 906.491 266.28 911.771 256.2C917.211 246.12 924.731 238.44 934.331 233.16C943.931 227.72 954.891 225 967.211 225C979.691 225 990.491 227.72 999.611 233.16C1008.89 238.44 1015.93 245.56 1020.73 254.52C1025.53 263.32 1027.93 272.84 1027.93 283.08ZM1017.13 287.16C1017.61 275.64 1015.53 265.88 1010.89 257.88C1006.41 249.88 1000.25 243.96 992.411 240.12C984.571 236.12 976.091 234.12 966.971 234.12C957.851 234.12 949.371 236.12 941.531 240.12C933.851 243.96 927.531 249.88 922.571 257.88C917.771 265.88 915.211 275.64 914.891 287.16H1017.13ZM1071.37 253.56C1074.57 243.96 1080.25 236.68 1088.41 231.72C1096.57 226.6 1106.97 224.04 1119.61 224.04V235.32H1116.01C1103.21 235.32 1092.57 239 1084.09 246.36C1075.61 253.56 1071.37 265.4 1071.37 281.88V357H1060.57V226.68H1071.37V253.56Z" fill="white"/>
<path d="M190.316 248.553L183.758 230.519V209.207M193.595 214.125L163.97 213.694L149.331 205.928L142.658 198.939L136.216 174.78L126.379 146.91L119.822 128.876M119.822 128.876L128.019 105.925M119.822 128.876L96.8699 117.401" stroke="white" stroke-width="10"/>
<path d="M304.5 249.5L311.632 230.519V211.5M304 210L309 215L316.5 215.5L331.42 213.694L349.338 205.928L352.732 198.939L359.174 174.78L369.011 146.91L375.568 128.876M375.568 128.876L367.371 105.925M375.568 128.876L398.52 117.401" stroke="white" stroke-width="10"/>
<path d="M305.074 373.147L297.622 396.099L288.68 414.133" stroke="white" stroke-width="10"/>
<path d="M337.862 292.817H362.453L369.011 305.932L393.602 346.917L400.159 358.393M400.159 358.393V382.984M400.159 358.393H426.39" stroke="white" stroke-width="10"/>
<path d="M157.528 292.817H132.937L126.379 305.932L101.788 346.917L95.2304 358.393M95.2304 358.393V382.984M95.2304 358.393H69" stroke="white" stroke-width="10"/>
<path d="M310 214.5L270.647 184.616M270.647 184.616L259.171 178.059L260.81 120.68L288.68 86.2521L306.713 84.6127L305.074 78.055L295.238 68.2186H260.81L247.695 89.5309L229.661 68.2186H198.513L191.955 78.055L190.316 84.6127L206.71 86.2521L232.94 120.68L234.58 178.059L223.104 184.616M270.647 184.616L280.483 169.862L290.319 163.304H311.632V143.631M223.104 184.616L206.71 197.731M223.104 184.616L213.267 169.862L203.431 163.304H183.758V143.631" stroke="white" stroke-width="10"/>
<path d="M156 269C172.152 258.346 204.622 241.951 247.695 243.634M247.695 460.036C235.673 460.582 210.644 456.757 193.595 437.084M247.695 460.036V341.999M247.695 460.036C326.413 453.288 342.521 360.887 338.034 296.096M247.695 325.605V315.768M247.695 304.292V274.783V243.634M247.695 243.634C273.113 244.628 304.893 251.498 334.583 266.586C335.759 273.514 336.773 281.252 337.514 289.538M337.514 289.538C337.707 291.688 337.881 293.876 338.034 296.096M337.514 289.538L338.034 296.096" stroke="white" stroke-width="10"/>
<path d="M157.528 264.947C155.342 307.025 156.872 398.394 180.48 420.69" stroke="white" stroke-width="10"/>
<path d="M334.583 371.508L362.063 382.984L356.91 419.051L355.193 438.724L353.475 456.757M353.475 456.757L331.304 476.43M353.475 456.757L370.65 478.069" stroke="white" stroke-width="10"/>
<path d="M160.807 371.508L133.327 382.984L138.479 419.051L140.197 438.724L141.914 456.757M141.914 456.757L164.085 476.43M141.914 456.757L124.74 478.069" stroke="white" stroke-width="10"/>
<rect x="177.201" y="322.326" width="13.1152" height="13.1152" fill="white"/>
<rect x="177.201" y="296.096" width="13.1152" height="13.1152" fill="white"/>
<rect x="180.479" y="348.556" width="13.1152" height="9.83641" fill="white"/>
</svg>
